# Blender 5.0.1
# www.blender.org
mtllib Untitled.mtl
o Cube
v -0.123847 0.481616 0.638067
v -0.123847 0.481616 -0.638067
v 0.123847 0.481616 0.638067
v 0.123847 0.481616 -0.638067
v -0.001327 -0.481616 0.006834
v -0.123847 -0.106621 0.638067
v -0.001327 -0.481616 -0.006834
v -0.123847 -0.106621 -0.638067
v 0.001327 -0.481616 0.006834
v 0.123847 -0.106621 0.638067
v 0.001327 -0.481616 -0.006834
v 0.123847 -0.106621 -0.638067
vn -0.0000 1.0000 -0.0000
vn -0.9506 -0.3106 -0.0000
vn -0.0000 -0.8597 -0.5107
vn 0.9506 -0.3106 -0.0000
vn -0.0000 -0.8597 0.5107
vn -0.0000 -1.0000 -0.0000
vn -1.0000 -0.0000 -0.0000
vn -0.0000 -0.0000 1.0000
vn -0.0000 -0.0000 -1.0000
vn 1.0000 -0.0000 -0.0000
vt 0.625000 0.500000
vt 0.875000 0.500000
vt 0.875000 0.750000
vt 0.625000 0.750000
vt 0.248661 0.623661
vt 0.248661 0.626339
vt 0.125000 0.750000
vt 0.125000 0.500000
vt 0.251339 0.623661
vt 0.447995 0.500000
vt 0.251339 0.626339
vt 0.447995 0.750000
vt 0.472327 0.000000
vt 0.625000 0.000000
vt 0.625000 0.250000
vt 0.472327 0.250000
vt 0.625000 1.000000
vt 0.472327 1.000000
s 0
f 4/1/1 2/2/1 1/3/1 3/4/1
f 7/5/2 5/6/2 6/7/2 8/8/2
f 11/9/3 7/5/3 8/8/3 12/10/3
f 9/11/4 11/9/4 12/10/4 10/12/4
f 5/6/5 9/11/5 10/12/5 6/7/5
f 7/5/6 11/9/6 9/11/6 5/6/6
f 6/13/7 1/14/7 2/15/7 8/16/7
f 10/12/8 3/4/8 1/17/8 6/18/8
f 8/16/9 2/15/9 4/1/9 12/10/9
f 12/10/10 4/1/10 3/4/10 10/12/10
